<?xml version="1.0" encoding="UTF-8" standalone="no"?>
<svg
   xmlns:dc="http://purl.org/dc/elements/1.1/"
   xmlns:cc="http://creativecommons.org/ns#"
   xmlns:rdf="http://www.w3.org/1999/02/22-rdf-syntax-ns#"
   xmlns:svg="http://www.w3.org/2000/svg"
   xmlns="http://www.w3.org/2000/svg"
   viewBox="0 0 784 196"
   height="196"
   width="784"
   xml:space="preserve"
   id="svg2"
   version="1.1"><metadata
     id="metadata8"><rdf:RDF><cc:Work
         rdf:about=""><dc:format>image/svg+xml</dc:format><dc:type
           rdf:resource="http://purl.org/dc/dcmitype/StillImage" /></cc:Work></rdf:RDF></metadata><defs
     id="defs6"><clipPath
       id="clipPath18"
       clipPathUnits="userSpaceOnUse"><path
         id="path16"
         d="M 0,147 H 588 V 0 H 0 Z" /></clipPath></defs><g
     transform="matrix(1.3333333,0,0,-1.3333333,0,196)"
     id="g10"><g
       id="g12"><g
         clip-path="url(#clipPath18)"
         id="g14"><g
           transform="translate(370.1494,69.083)"
           id="g20"><path
             id="path22"
             style="fill:#ffffff;fill-opacity:1;fill-rule:nonzero;stroke:none"
             d="M 0,0 H -0.896 C -1.37,0 -1.768,-0.271 -1.953,-0.676 -1.999,-0.811 -2.027,-0.963 -2.027,-1.117 v -19.615 c 0,-0.614 0.486,-1.096 1.131,-1.096 H 0 c 0.463,0 0.863,0.262 1.036,0.664 0.064,0.141 0.101,0.297 0.101,0.432 V -1.115 C 1.137,-0.496 0.632,0 0,0" /></g><g
           transform="translate(440.9648,69.083)"
           id="g24"><path
             id="path26"
             style="fill:#ffffff;fill-opacity:1;fill-rule:nonzero;stroke:none"
             d="M 0,0 H -0.919 C -1.36,0 -1.764,-0.271 -1.941,-0.676 -2.002,-0.814 -2.03,-0.963 -2.03,-1.117 v -19.615 c 0,-0.614 0.488,-1.096 1.111,-1.096 H 0 c 0.449,0 0.853,0.262 1.042,0.664 0.057,0.141 0.082,0.281 0.082,0.432 V -1.115 C 1.124,-0.496 0.626,0 0,0" /></g><g
           transform="translate(280.9775,59.2881)"
           id="g28"><path
             id="path30"
             style="fill:#ffffff;fill-opacity:1;fill-rule:nonzero;stroke:none"
             d="M 0,0 C 0,1.082 0.952,1.957 2.092,1.957 H 5.773 C 6.949,1.957 7.895,1.082 7.895,0 V -1.99 H 0 Z M 5.773,5.035 H 2.092 C -0.799,5.035 -3.152,2.777 -3.152,0 v -7.012 c 0,-2.783 2.353,-5.051 5.244,-5.051 h 3.681 c 1.281,0 2.499,0.444 3.426,1.233 0.715,0.58 1.244,1.307 1.547,2.107 0.124,0.344 0.078,0.705 -0.115,0.996 -0.211,0.307 -0.548,0.483 -0.938,0.483 H 8.699 c -0.467,0 -0.877,-0.252 -0.99,-0.602 -0.375,-0.693 -1.124,-1.15 -1.936,-1.15 H 2.092 C 0.952,-8.996 0,-8.107 0,-7.012 v 1.963 h 9.453 c 0.895,0 1.598,0.678 1.598,1.547 V 0 c 0,2.777 -2.369,5.035 -5.278,5.035" /></g><g
           transform="translate(301.043,61.2451)"
           id="g32"><path
             id="path34"
             style="fill:#ffffff;fill-opacity:1;fill-rule:nonzero;stroke:none"
             d="m 0,0 h 3.685 c 0.81,0 1.565,-0.418 1.89,-1.025 0.152,-0.44 0.569,-0.729 1.053,-0.729 h 0.971 c 0.377,0 0.736,0.186 0.941,0.504 0.201,0.293 0.239,0.668 0.115,0.967 C 8.342,0.547 7.818,1.289 7.119,1.857 6.194,2.635 4.973,3.078 3.685,3.078 H 0 c -2.89,0 -5.248,-2.258 -5.248,-5.035 v -7.012 c 0,-2.783 2.358,-5.051 5.248,-5.051 h 3.685 c 1.278,0 2.482,0.444 3.427,1.233 0.706,0.58 1.23,1.307 1.537,2.107 0.13,0.344 0.092,0.705 -0.109,0.996 -0.205,0.307 -0.564,0.483 -0.941,0.483 H 6.595 c -0.459,0 -0.879,-0.26 -0.979,-0.602 -0.366,-0.693 -1.138,-1.15 -1.931,-1.15 H 0 c -1.151,0 -2.085,0.889 -2.085,1.984 v 7.012 C -2.085,-0.875 -1.151,0 0,0" /></g><g
           transform="translate(322.1924,64.3232)"
           id="g36"><path
             id="path38"
             style="fill:#ffffff;fill-opacity:1;fill-rule:nonzero;stroke:none"
             d="m 0,0 h -5.775 v 3.645 c 0,0.619 -0.499,1.115 -1.127,1.115 h -0.904 c -0.453,0 -0.86,-0.272 -1.036,-0.684 -0.063,-0.14 -0.091,-0.289 -0.091,-0.433 v -19.616 c 0,-0.613 0.501,-1.095 1.127,-1.095 h 0.904 c 0.459,0 0.861,0.261 1.038,0.664 0.06,0.14 0.089,0.281 0.089,0.431 V -3.078 H 0 c 1.168,0 2.114,-0.875 2.114,-1.957 v -10.967 c 0,-0.617 0.486,-1.096 1.124,-1.096 h 0.907 c 0.628,0 1.126,0.479 1.126,1.096 V -5.035 C 5.271,-2.258 2.908,0 0,0" /></g><g
           transform="translate(340.5127,64.3369)"
           id="g40"><path
             id="path42"
             style="fill:#ffffff;fill-opacity:1;fill-rule:nonzero;stroke:none"
             d="m 0,0 h -7.808 c -0.626,0 -1.118,-0.475 -1.118,-1.1 v -14.886 c 0,-0.614 0.492,-1.096 1.118,-1.096 h 0.907 c 0.643,0 1.12,0.482 1.12,1.096 V -3.059 H 0 c 1.186,0 2.125,-0.869 2.125,-1.99 v -10.937 c 0,-0.614 0.488,-1.096 1.109,-1.096 h 0.915 c 0.619,0 1.121,0.482 1.121,1.096 V -5.049 C 5.27,-2.258 2.91,0 0,0" /></g><g
           transform="translate(352.7998,59.2881)"
           id="g44"><path
             id="path46"
             style="fill:#ffffff;fill-opacity:1;fill-rule:nonzero;stroke:none"
             d="M 0,0 C 0,1.082 0.934,1.957 2.082,1.957 H 5.77 C 6.925,1.957 7.882,1.082 7.882,0 V -7.012 C 7.882,-8.08 6.925,-8.963 5.77,-8.963 H 2.082 C 0.934,-8.963 0,-8.08 0,-7.012 Z M 5.77,5.035 H 2.082 C -0.803,5.035 -3.16,2.777 -3.16,0 v -7.012 c 0,-2.773 2.357,-5.021 5.242,-5.021 H 5.77 c 2.9,0 5.271,2.248 5.271,5.021 V 0 c 0,2.777 -2.371,5.035 -5.271,5.035" /></g><g
           transform="translate(378.6768,59.2881)"
           id="g48"><path
             id="path50"
             style="fill:#ffffff;fill-opacity:1;fill-rule:nonzero;stroke:none"
             d="M 0,0 C 0,1.082 0.925,1.957 2.068,1.957 H 5.763 C 6.924,1.957 7.871,1.082 7.871,0 v -7.012 c 0,-1.068 -0.947,-1.951 -2.108,-1.951 H 2.068 C 0.925,-8.963 0,-8.08 0,-7.012 Z M 5.763,5.035 H 2.068 C -0.814,5.035 -3.176,2.777 -3.176,0 v -7.012 c 0,-2.773 2.362,-5.021 5.244,-5.021 h 3.695 c 2.901,0 5.262,2.248 5.262,5.021 V 0 c 0,2.777 -2.361,5.035 -5.262,5.035" /></g><g
           transform="translate(424.8779,64.3232)"
           id="g52"><path
             id="path54"
             style="fill:#ffffff;fill-opacity:1;fill-rule:nonzero;stroke:none"
             d="M 0,0 H -0.639 C -1.285,0 -1.87,-0.387 -2.131,-0.984 l -4.466,-11.621 -4.489,11.646 C -11.328,-0.389 -11.912,0 -12.561,0 h -0.642 c -0.367,0 -0.724,-0.184 -0.933,-0.496 -0.208,-0.289 -0.255,-0.65 -0.122,-0.998 l 5.964,-15.475 -1.291,-3.349 c -0.135,-0.348 -0.077,-0.729 0.128,-1.03 0.199,-0.3 0.539,-0.482 0.908,-0.482 h 0.658 c 0.648,0 1.233,0.391 1.498,1.004 l 7.45,19.342 C 1.191,-1.141 1.145,-0.781 0.93,-0.488 0.736,-0.186 0.388,0 0,0" /></g><g
           transform="translate(455.6006,64.3369)"
           id="g56"><path
             id="path58"
             style="fill:#ffffff;fill-opacity:1;fill-rule:nonzero;stroke:none"
             d="M 0,0 H -7.781 C -8.41,0 -8.914,-0.475 -8.914,-1.1 v -14.886 c 0,-0.614 0.504,-1.096 1.133,-1.096 h 0.901 c 0.628,0 1.112,0.482 1.112,1.096 V -3.059 H 0 c 1.19,0 2.117,-0.869 2.117,-1.99 v -10.937 c 0,-0.614 0.494,-1.096 1.121,-1.096 h 0.924 c 0.623,0 1.118,0.482 1.118,1.096 V -5.049 C 5.28,-2.258 2.912,0 0,0" /></g><g
           transform="translate(527.9238,64.3369)"
           id="g60"><path
             id="path62"
             style="fill:#ffffff;fill-opacity:1;fill-rule:nonzero;stroke:none"
             d="m 0,0 h -0.909 c -0.632,0 -1.135,-0.475 -1.135,-1.1 v -12.912 h -5.755 c -1.194,0 -2.13,0.866 -2.13,1.981 V -1.1 c 0,0.625 -0.477,1.1 -1.107,1.1 h -0.904 c -0.629,0 -1.133,-0.475 -1.133,-1.1 v -10.931 c 0,-2.793 2.373,-5.051 5.274,-5.051 H 0 c 0.618,0 1.126,0.482 1.126,1.096 V -1.1 C 1.126,-0.475 0.618,0 0,0" /></g><g
           transform="translate(549.9912,61.2451)"
           id="g64"><path
             id="path66"
             style="fill:#ffffff;fill-opacity:1;fill-rule:nonzero;stroke:none"
             d="m 0,0 h 3.674 c 1.174,0 2.124,-0.875 2.124,-1.957 v -1.99 h -7.887 v 1.99 C -2.089,-0.875 -1.152,0 0,0 m 7.354,-7.006 c 0.891,0 1.6,0.678 1.6,1.547 v 3.502 c 0,2.777 -2.368,5.035 -5.28,5.035 L 0,3.078 c -2.883,0 -5.249,-2.258 -5.249,-5.035 v -7.012 c 0,-2.783 2.366,-5.051 5.249,-5.051 h 3.674 c 1.285,0 2.496,0.444 3.428,1.233 0.707,0.58 1.232,1.297 1.546,2.107 0.124,0.344 0.078,0.705 -0.122,0.996 -0.205,0.307 -0.561,0.483 -0.94,0.483 H 6.6 c -0.471,0 -0.891,-0.252 -0.99,-0.602 -0.37,-0.693 -1.129,-1.15 -1.936,-1.15 H 0 c -1.152,0 -2.089,0.889 -2.089,1.984 v 1.963 z" /></g><g
           transform="translate(490.2109,50.2471)"
           id="g68"><path
             id="path70"
             style="fill:#ffffff;fill-opacity:1;fill-rule:nonzero;stroke:none"
             d="m 0,0 c -0.134,0.053 -0.274,0.088 -0.423,0.088 l -2.724,-0.01 c -1.151,0 -2.094,0.883 -2.094,1.951 v 8.959 h 4.539 c 0.601,0 1.07,0.485 1.07,1.11 v 0.881 c 0,0.443 -0.255,0.839 -0.652,1.013 -0.127,0.057 -0.279,0.084 -0.426,0.084 h -4.531 v 1.983 c 0,0.593 -0.51,1.101 -1.124,1.101 H -7.276 C -7.884,17.16 -8.4,16.652 -8.4,16.059 V 2.029 c 0,-2.773 2.358,-5.025 5.253,-5.025 h 2.736 c 0.596,0 1.07,0.478 1.07,1.1 v 0.873 C 0.659,-0.566 0.406,-0.176 0,0" /></g><g
           transform="translate(510.9258,50.2471)"
           id="g72"><path
             id="path74"
             style="fill:#ffffff;fill-opacity:1;fill-rule:nonzero;stroke:none"
             d="m 0,0 c -0.13,0.053 -0.278,0.088 -0.431,0.088 l -2.735,-0.01 c -1.146,0 -2.077,0.883 -2.077,1.951 v 8.959 h 4.533 c 0.606,0 1.072,0.485 1.072,1.11 v 0.881 c 0,0.443 -0.25,0.839 -0.646,1.013 -0.131,0.057 -0.281,0.084 -0.426,0.084 h -4.533 v 1.983 c 0,0.593 -0.52,1.101 -1.133,1.101 h -0.907 c -0.61,0 -1.123,-0.508 -1.123,-1.101 V 2.029 c 0,-2.773 2.354,-5.025 5.24,-5.025 h 2.751 c 0.59,0 1.059,0.478 1.059,1.1 v 0.873 C 0.644,-0.566 0.397,-0.176 0,0" /></g><g
           transform="translate(541.4404,50.2471)"
           id="g76"><path
             id="path78"
             style="fill:#ffffff;fill-opacity:1;fill-rule:nonzero;stroke:none"
             d="m 0,0 c -0.144,0.053 -0.279,0.088 -0.43,0.088 l -2.728,-0.01 c -1.16,0 -2.094,0.883 -2.094,1.951 v 8.959 h 4.548 c 0.594,0 1.064,0.485 1.064,1.11 v 0.881 c 0,0.443 -0.249,0.839 -0.651,1.013 -0.139,0.057 -0.281,0.084 -0.428,0.084 h -4.533 v 1.983 c 0,0.593 -0.513,1.101 -1.119,1.101 h -0.912 c -0.608,0 -1.122,-0.508 -1.122,-1.101 V 2.029 c 0,-2.773 2.348,-5.025 5.247,-5.025 h 2.728 c 0.61,0 1.087,0.478 1.087,1.1 v 0.873 C 0.657,-0.566 0.393,-0.176 0,0" /></g><g
           transform="translate(496.8945,69.083)"
           id="g80"><path
             id="path82"
             style="fill:#ffffff;fill-opacity:1;fill-rule:nonzero;stroke:none"
             d="M 0,0 H -0.903 C -1.356,0 -1.772,-0.271 -1.94,-0.676 -1.993,-0.82 -2.03,-0.963 -2.03,-1.117 v -2.748 c 0,-0.614 0.49,-1.098 1.122,-1.098 H 0 c 0.457,0 0.87,0.258 1.034,0.658 0.073,0.131 0.1,0.284 0.1,0.44 v 2.75 C 1.134,-0.496 0.636,0 0,0" /></g><g
           transform="translate(496.8945,62.1201)"
           id="g84"><path
             id="path86"
             style="fill:#ffffff;fill-opacity:1;fill-rule:nonzero;stroke:none"
             d="M 0,0 H -0.903 C -1.356,0 -1.769,-0.264 -1.94,-0.674 -1.993,-0.807 -2.03,-0.955 -2.03,-1.104 V -13.77 c 0,-0.613 0.49,-1.095 1.122,-1.095 H 0 c 0.457,0 0.87,0.261 1.034,0.656 0.073,0.141 0.1,0.289 0.1,0.439 V -1.104 C 1.134,-0.488 0.636,0 0,0" /></g><g
           transform="translate(276.7217,68.9854)"
           id="g88"><path
             id="path90"
             style="fill:#ffffff;fill-opacity:1;fill-rule:nonzero;stroke:none"
             d="m 0,0 c -0.145,0.057 -0.279,0.098 -0.465,0.098 h -14.582 c -0.141,0 -0.288,-0.041 -0.422,-0.098 -0.392,-0.168 -0.656,-0.564 -0.656,-1.018 v -0.878 c 0,-0.61 0.486,-1.098 1.078,-1.098 h 5.731 v -17.641 c 0,-0.605 0.496,-1.095 1.093,-1.095 h 0.94 c 0.614,0 1.133,0.5 1.133,1.095 v 17.641 h 5.726 c 0.617,0 1.082,0.488 1.082,1.098 v 0.878 C 0.658,-0.564 0.404,-0.168 0,0" /></g><g
           transform="translate(396.5381,59.2881)"
           id="g92"><path
             id="path94"
             style="fill:#ffffff;fill-opacity:1;fill-rule:nonzero;stroke:none"
             d="M 0,0 C 0,1.082 0.941,1.957 2.082,1.957 H 7.889 V -7.938 H 2.082 C 0.941,-7.938 0,-7.051 0,-5.955 Z M 9.91,5.035 H 2.082 C -0.8,5.035 -3.152,2.777 -3.152,0 v -5.955 c 0,-2.781 2.352,-5.051 5.234,-5.051 h 5.807 v -0.734 c 0,-1.076 -0.951,-1.961 -2.102,-1.977 h -5.811 c -0.169,0 -0.313,-0.015 -0.431,-0.072 -0.402,-0.168 -0.649,-0.576 -0.649,-1.016 v -0.89 c 0,-0.618 0.467,-1.1 1.08,-1.1 h 5.792 c 2.911,0 5.282,2.27 5.282,5.055 V 3.928 c 0,0.611 -0.508,1.107 -1.14,1.107" /></g><g
           transform="translate(473.1406,57.2979)"
           id="g96"><path
             id="path98"
             style="fill:#ffffff;fill-opacity:1;fill-rule:nonzero;stroke:none"
             d="m 0,0 h -3.535 c -0.519,0 -1.046,0.211 -1.468,0.572 -0.41,0.346 -0.655,0.819 -0.68,1.307 -0.029,0.543 0.184,1.059 0.576,1.453 0.378,0.391 0.929,0.615 1.514,0.615 h 6.364 c 0.589,0 1.078,0.475 1.078,1.094 v 0.887 c 0,0.443 -0.27,0.834 -0.664,1.004 -0.131,0.054 -0.28,0.093 -0.414,0.093 h -6.252 c -1.422,0 -2.826,-0.56 -3.852,-1.535 -1.011,-1.004 -1.539,-2.25 -1.519,-3.601 0.054,-1.342 0.616,-2.586 1.593,-3.502 1.025,-0.936 2.321,-1.446 3.666,-1.446 h 3.656 c 0.534,0 1.057,-0.195 1.459,-0.537 C 1.944,-3.951 2.188,-4.41 2.206,-4.904 2.228,-5.455 2.03,-5.969 1.638,-6.365 1.237,-6.76 0.694,-6.973 0.089,-6.973 l -7.164,0.006 c -0.604,0 -1.075,-0.484 -1.075,-1.099 v -0.881 c 0,-0.448 0.26,-0.846 0.659,-1.006 0.133,-0.061 0.271,-0.09 0.421,-0.09 h 7.159 c 1.377,0 2.693,0.5 3.7,1.432 0.975,0.935 1.546,2.179 1.573,3.482 0.032,1.352 -0.489,2.604 -1.508,3.621 C 2.835,-0.543 1.433,0 0,0" /></g><g
           transform="translate(285.2021,88.1172)"
           id="g100"><path
             id="path102"
             style="fill:#ffffff;fill-opacity:1;fill-rule:nonzero;stroke:none"
             d="M 0,0 C 0,1.074 0.951,1.957 2.103,1.957 H 5.779 C 6.939,1.957 7.895,1.074 7.895,0 v -7.006 c 0,-1.084 -0.956,-1.961 -2.116,-1.961 H 2.103 C 0.951,-8.967 0,-8.09 0,-7.006 Z M 5.779,5.029 H 2.103 C -0.795,5.029 -3.15,2.771 -3.15,0 v -7.006 c 0,-2.775 2.355,-5.025 5.253,-5.025 h 3.676 c 2.905,0 5.272,2.25 5.272,5.025 V 0 c 0,2.771 -2.367,5.029 -5.272,5.029" /></g><g
           transform="translate(315.3584,88.1172)"
           id="g104"><path
             id="path106"
             style="fill:#ffffff;fill-opacity:1;fill-rule:nonzero;stroke:none"
             d="M 0,0 C 0,1.074 0.924,1.957 2.076,1.957 H 5.76 C 6.929,1.957 7.889,1.074 7.889,0 V -1.982 H 0 Z M 5.76,5.029 H 2.076 C -0.815,5.029 -3.16,2.771 -3.16,0 v -7.006 c 0,-2.795 2.345,-5.058 5.236,-5.058 H 5.76 c 1.286,0 2.497,0.435 3.426,1.232 0.713,0.57 1.248,1.314 1.545,2.111 0.124,0.338 0.081,0.705 -0.106,0.998 -0.211,0.303 -0.563,0.485 -0.953,0.485 H 8.689 C 8.217,-7.238 7.812,-7.5 7.693,-7.842 7.328,-8.545 6.564,-8.992 5.76,-8.992 H 2.076 C 0.924,-8.992 0,-8.105 0,-7.006 v 1.951 h 9.449 c 0.894,0 1.586,0.678 1.586,1.551 V 0 c 0,2.771 -2.357,5.029 -5.275,5.029" /></g><g
           transform="translate(379.5049,97.9004)"
           id="g108"><path
             id="path110"
             style="fill:#ffffff;fill-opacity:1;fill-rule:nonzero;stroke:none"
             d="M 0,0 H -0.914 C -1.37,0 -1.773,-0.264 -1.955,-0.666 -2.013,-0.807 -2.043,-0.955 -2.043,-1.107 v -19.608 c 0,-0.623 0.501,-1.099 1.129,-1.099 H 0 c 0.441,0 0.846,0.253 1.027,0.662 0.06,0.142 0.082,0.283 0.082,0.437 V -1.104 C 1.109,-0.486 0.625,0 0,0" /></g><g
           transform="translate(388.1338,88.1172)"
           id="g112"><path
             id="path114"
             style="fill:#ffffff;fill-opacity:1;fill-rule:nonzero;stroke:none"
             d="M 0,0 C 0,1.074 0.943,1.957 2.092,1.957 H 5.778 C 6.94,1.957 7.885,1.074 7.885,0 V -1.982 H 0 Z M 5.778,5.029 H 2.092 C -0.816,5.029 -3.16,2.771 -3.16,0 v -7.006 c 0,-2.795 2.344,-5.058 5.252,-5.058 h 3.686 c 1.269,0 2.486,0.435 3.425,1.232 0.7,0.57 1.232,1.305 1.538,2.111 0.126,0.338 0.087,0.701 -0.121,1.004 -0.21,0.297 -0.561,0.479 -0.935,0.479 H 8.69 C 8.224,-7.238 7.813,-7.5 7.695,-7.842 7.334,-8.545 6.572,-8.992 5.778,-8.992 H 2.092 C 0.943,-8.992 0,-8.105 0,-7.006 v 1.951 h 9.451 c 0.892,0 1.594,0.678 1.594,1.551 V 0 c 0,2.771 -2.371,5.029 -5.267,5.029" /></g><g
           transform="translate(408.1064,90.0742)"
           id="g116"><path
             id="path118"
             style="fill:#ffffff;fill-opacity:1;fill-rule:nonzero;stroke:none"
             d="m 0,0 h 3.667 c 0.815,0 1.562,-0.42 1.89,-1.037 0.147,-0.428 0.578,-0.719 1.066,-0.719 h 0.965 c 0.38,0 0.731,0.192 0.938,0.508 0.199,0.289 0.24,0.668 0.117,0.961 C 8.348,0.543 7.811,1.287 7.109,1.852 6.181,2.643 4.967,3.072 3.667,3.072 H 0 c -2.904,0 -5.265,-2.258 -5.265,-5.029 v -7.006 c 0,-2.795 2.361,-5.058 5.265,-5.058 h 3.667 c 1.281,0 2.495,0.435 3.431,1.232 0.704,0.57 1.239,1.305 1.545,2.111 0.123,0.348 0.082,0.709 -0.123,0.998 -0.201,0.303 -0.557,0.485 -0.932,0.485 h -0.99 c -0.47,0 -0.894,-0.262 -1.004,-0.604 -0.363,-0.703 -1.112,-1.15 -1.927,-1.15 H 0 c -1.163,0 -2.094,0.886 -2.094,1.986 v 7.006 C -2.094,-0.883 -1.163,0 0,0" /></g><g
           transform="translate(447.8447,88.1172)"
           id="g120"><path
             id="path122"
             style="fill:#ffffff;fill-opacity:1;fill-rule:nonzero;stroke:none"
             d="M 0,0 C 0,1.074 0.932,1.957 2.078,1.957 H 5.76 C 6.934,1.957 7.88,1.074 7.88,0 V -7.006 C 7.88,-8.09 6.934,-8.967 5.76,-8.967 H 2.078 C 0.932,-8.967 0,-8.09 0,-7.006 Z M 5.76,5.029 H 2.078 C -0.812,5.029 -3.169,2.771 -3.169,0 v -7.006 c 0,-2.775 2.357,-5.025 5.247,-5.025 H 5.76 c 2.916,0 5.273,2.25 5.273,5.025 V 0 c 0,2.771 -2.357,5.029 -5.273,5.029" /></g><g
           transform="translate(471.4492,93.1719)"
           id="g124"><path
             id="path126"
             style="fill:#ffffff;fill-opacity:1;fill-rule:nonzero;stroke:none"
             d="m 0,0 h -7.792 c -0.634,0 -1.125,-0.486 -1.125,-1.104 v -14.882 c 0,-0.623 0.491,-1.1 1.125,-1.1 h 0.908 c 0.635,0 1.119,0.477 1.119,1.1 V -3.074 H 0 c 1.188,0 2.115,-0.864 2.115,-1.981 v -10.931 c 0,-0.623 0.503,-1.1 1.131,-1.1 h 0.913 c 0.623,0 1.112,0.477 1.112,1.1 V -5.055 C 5.271,-2.266 2.909,0 0,0" /></g><g
           transform="translate(493.5039,90.0742)"
           id="g128"><path
             id="path130"
             style="fill:#ffffff;fill-opacity:1;fill-rule:nonzero;stroke:none"
             d="m 0,0 h 3.677 c 0.821,0 1.564,-0.42 1.902,-1.031 0.148,-0.434 0.572,-0.725 1.055,-0.725 h 0.965 c 0.39,0 0.738,0.192 0.945,0.502 0.197,0.295 0.24,0.668 0.115,0.967 C 8.356,0.543 7.829,1.287 7.108,1.852 6.206,2.643 4.982,3.072 3.677,3.072 H 0 c -2.887,0 -5.246,-2.258 -5.246,-5.029 v -7.006 c 0,-2.795 2.359,-5.058 5.246,-5.058 h 3.677 c 1.273,0 2.504,0.435 3.431,1.232 0.705,0.57 1.233,1.305 1.551,2.119 0.125,0.34 0.082,0.701 -0.115,0.99 -0.213,0.303 -0.565,0.485 -0.945,0.485 H 6.607 c -0.473,0 -0.88,-0.262 -0.996,-0.604 -0.36,-0.703 -1.113,-1.15 -1.934,-1.15 H 0 c -1.146,0 -2.084,0.886 -2.084,1.986 v 7.006 C -2.084,-0.883 -1.146,0 0,0" /></g><g
           transform="translate(272.6279,87.4219)"
           id="g132"><path
             id="path134"
             style="fill:#ffffff;fill-opacity:1;fill-rule:nonzero;stroke:none"
             d="M 0,0 6.448,8.723 C 6.705,9.059 6.747,9.48 6.565,9.861 6.378,10.238 5.996,10.479 5.546,10.479 H 4.67 C 4.18,10.479 3.691,10.238 3.387,9.85 L -2.607,1.742 C -2.775,1.498 -3.085,1.357 -3.42,1.357 h -2.271 v 8.018 c 0,0.617 -0.497,1.104 -1.13,1.104 h -0.891 c -0.47,0 -0.878,-0.264 -1.05,-0.666 -0.059,-0.141 -0.095,-0.29 -0.095,-0.442 v -19.607 c 0,-0.623 0.507,-1.1 1.145,-1.1 h 0.891 c 0.46,0 0.873,0.254 1.037,0.662 0.067,0.143 0.093,0.283 0.093,0.438 v 8.521 h 2.531 c 0.334,0 0.65,-0.154 0.828,-0.402 l 6.398,-8.612 c 0.311,-0.394 0.761,-0.607 1.252,-0.607 h 0.903 c 0.423,0 0.799,0.213 0.984,0.572 0.193,0.368 0.171,0.801 -0.082,1.168 z" /></g><g
           transform="translate(309.1172,93.0664)"
           id="g136"><path
             id="path138"
             style="fill:#ffffff;fill-opacity:1;fill-rule:nonzero;stroke:none"
             d="m 0,0 c -0.143,0.055 -0.278,0.088 -0.462,0.088 h -3.167 c -2.895,0 -5.244,-2.256 -5.244,-5.033 V -15.9 c 0,-0.596 0.498,-1.075 1.125,-1.075 h 0.894 c 0.633,0 1.134,0.479 1.134,1.075 v 10.955 c 0,1.029 0.86,1.882 1.934,1.945 h 3.358 c 0.611,0 1.095,0.484 1.095,1.104 v 0.878 C 0.667,-0.568 0.398,-0.17 0,0" /></g><g
           transform="translate(441.7451,93.0664)"
           id="g140"><path
             id="path142"
             style="fill:#ffffff;fill-opacity:1;fill-rule:nonzero;stroke:none"
             d="m 0,0 c -0.146,0.055 -0.281,0.088 -0.472,0.088 h -3.172 c -2.883,0 -5.24,-2.256 -5.24,-5.033 V -15.9 c 0,-0.596 0.513,-1.075 1.136,-1.075 h 0.893 c 0.625,0 1.129,0.479 1.129,1.075 v 10.955 c 0,1.029 0.867,1.882 1.943,1.945 h 3.353 c 0.607,0 1.086,0.484 1.086,1.104 v 0.878 C 0.656,-0.568 0.395,-0.17 0,0" /></g><g
           transform="translate(332.5811,81.8008)"
           id="g144"><path
             id="path146"
             style="fill:#ffffff;fill-opacity:1;fill-rule:nonzero;stroke:none"
             d="M 0,0 C 0,1.08 0.945,1.959 2.087,1.959 H 7.894 V -2.676 H 2.087 C 0.945,-2.676 0,-1.789 0,-0.689 Z m 5.771,11.346 h -5.994 c -0.138,0 -0.283,-0.026 -0.423,-0.08 -0.401,-0.17 -0.647,-0.569 -0.647,-1.018 V 9.369 c 0,-0.619 0.464,-1.096 1.07,-1.096 h 5.994 c 1.176,0 2.123,-0.882 2.123,-1.957 V 5.033 H 2.087 C -0.793,5.033 -3.145,2.77 -3.145,0 v -0.689 c 0,-2.795 2.352,-5.059 5.232,-5.059 H 9.46 c 0.894,0 1.591,0.685 1.591,1.553 V 6.316 c 0,2.772 -2.366,5.03 -5.28,5.03" /></g><g
           transform="translate(372.4355,97.8125)"
           id="g148"><path
             id="path150"
             style="fill:#ffffff;fill-opacity:1;fill-rule:nonzero;stroke:none"
             d="m 0,0 c -0.132,0.063 -0.272,0.088 -0.47,0.088 h -12.241 c -0.851,0 -1.553,-0.697 -1.553,-1.551 v -18.744 c 0,-0.83 0.658,-1.486 1.507,-1.52 h 0.046 12.294 c 0.609,0 1.086,0.477 1.086,1.096 v 0.885 c 0,0.439 -0.261,0.838 -0.669,1.017 -0.132,0.055 -0.272,0.084 -0.417,0.084 h -10.695 v 6.715 h 8.5 c 0.617,0 1.091,0.491 1.091,1.104 v 0.879 c 0,0.449 -0.257,0.847 -0.656,1.017 -0.138,0.055 -0.286,0.088 -0.435,0.088 h -8.5 v 5.852 h 10.695 c 0.609,0 1.086,0.482 1.086,1.094 v 0.88 C 0.669,-0.568 0.408,-0.168 0,0" /></g><g
           transform="translate(428.8037,79.0781)"
           id="g152"><path
             id="path154"
             style="fill:#ffffff;fill-opacity:1;fill-rule:nonzero;stroke:none"
             d="M 0,0 C -0.136,0.049 -0.283,0.078 -0.428,0.078 L -3.167,0.072 c -1.146,0 -2.075,0.877 -2.075,1.961 v 8.955 h 4.525 c 0.608,0 1.083,0.485 1.083,1.104 v 0.879 c 0,0.449 -0.257,0.847 -0.659,1.017 -0.135,0.055 -0.275,0.088 -0.424,0.088 h -4.525 v 1.971 c 0,0.599 -0.522,1.105 -1.139,1.105 h -0.904 c -0.611,0 -1.123,-0.506 -1.123,-1.105 V 2.033 c 0,-2.775 2.351,-5.035 5.241,-5.035 h 2.739 c 0.603,0 1.075,0.486 1.075,1.106 v 0.871 C 0.647,-0.58 0.391,-0.174 0,0" /></g><g
           transform="translate(483.0322,97.9004)"
           id="g156"><path
             id="path158"
             style="fill:#ffffff;fill-opacity:1;fill-rule:nonzero;stroke:none"
             d="m 0,0 h -0.899 c -0.46,0 -0.878,-0.264 -1.046,-0.666 -0.056,-0.135 -0.081,-0.281 -0.081,-0.441 v -2.748 c 0,-0.61 0.488,-1.096 1.127,-1.096 h 0.893 c 0.469,0 0.871,0.263 1.049,0.662 0.056,0.144 0.094,0.289 0.094,0.434 v 2.751 C 1.137,-0.486 0.639,0 0,0" /></g><g
           transform="translate(483.0322,90.9453)"
           id="g160"><path
             id="path162"
             style="fill:#ffffff;fill-opacity:1;fill-rule:nonzero;stroke:none"
             d="m 0,0 h -0.899 c -0.46,0 -0.878,-0.264 -1.046,-0.666 -0.056,-0.139 -0.081,-0.283 -0.081,-0.441 V -13.76 c 0,-0.623 0.488,-1.099 1.127,-1.099 h 0.893 c 0.463,0 0.871,0.254 1.049,0.662 0.056,0.142 0.094,0.283 0.094,0.437 V -1.104 C 1.137,-0.479 0.639,0 0,0" /></g><g
           transform="translate(513.9824,86.1348)"
           id="g164"><path
             id="path166"
             style="fill:#ffffff;fill-opacity:1;fill-rule:nonzero;stroke:none"
             d="m 0,0 h -3.549 c -0.514,0 -1.026,0.203 -1.466,0.564 -0.414,0.354 -0.655,0.821 -0.673,1.305 -0.024,0.551 0.189,1.063 0.574,1.461 0.381,0.387 0.924,0.609 1.509,0.609 h 6.363 c 0.615,0 1.083,0.477 1.083,1.096 V 5.914 C 3.841,6.355 3.585,6.758 3.189,6.93 3.052,6.982 2.914,7.012 2.758,7.012 h -6.23 c -1.437,0 -2.834,-0.555 -3.866,-1.526 -1.015,-1.013 -1.542,-2.25 -1.51,-3.599 0.05,-1.352 0.6,-2.594 1.595,-3.508 1.016,-0.938 2.314,-1.451 3.648,-1.451 H 0.06 c 0.527,0 1.056,-0.194 1.466,-0.532 0.411,-0.359 0.651,-0.82 0.673,-1.31 C 2.226,-5.465 2.021,-5.973 1.623,-6.373 1.246,-6.768 0.685,-6.984 0.085,-6.984 l -7.157,0.002 c -0.604,0 -1.075,-0.481 -1.075,-1.09 v -0.881 c 0,-0.443 0.248,-0.844 0.648,-1.014 0.146,-0.064 0.276,-0.082 0.427,-0.082 h 7.157 c 1.376,0 2.69,0.502 3.699,1.434 0.981,0.927 1.54,2.177 1.572,3.488 0.042,1.356 -0.482,2.594 -1.52,3.611 C 2.819,-0.555 1.428,0 0,0" /></g><g
           transform="translate(75.2139,97.6738)"
           id="g168"><path
             id="path170"
             style="fill:#ffffff;fill-opacity:1;fill-rule:nonzero;stroke:none"
             d="M 0,0 H 21.574 L 4.723,-25.199 21.574,-50.382 H 0 l -13.699,23.774 v -23.774 h -18.57 V 0 h 18.57 V -23.779 Z M 58.878,-10.092 H 43.291 v -10.066 h 29.59 c -1.878,-1.408 -2.983,-3.155 -2.983,-5.041 0,-1.892 1.105,-3.62 2.983,-5.017 h -29.59 v -10.101 h 15.587 c -1.896,-1.412 -2.836,-3.139 -2.836,-5.032 0,-1.888 0.94,-3.627 2.836,-5.033 H 28.33 24.871 V 0 h 34.007 c -1.896,-1.418 -2.836,-3.148 -2.836,-5.045 0,-1.896 0.94,-3.621 2.836,-5.047 m 66.911,-0.623 v -39.667 h -18.428 v 39.667 H 90.697 V 0 h 51.771 V -10.715 Z M 145.783,0 h 18.561 v -50.382 h -18.561 z" /></g><g
           transform="translate(161.3389,63.6631)"
           id="g172"><path
             id="path174"
             style="fill:#ffffff;fill-opacity:1;fill-rule:nonzero;stroke:none"
             d="m 0,0 c 8.814,0 16.042,3.932 16.042,8.812 0,4.88 -7.228,8.818 -16.042,8.818 -8.988,0 -16.227,-3.938 -16.227,-8.818 C -16.227,3.932 -8.988,0 0,0 m -14.035,20.149 c 8.832,0 16.066,3.932 16.066,8.817 0,4.873 -7.234,8.812 -16.066,8.812 -8.815,0 -16.048,-3.939 -16.048,-8.812 0,-4.885 7.233,-8.817 16.048,-8.817 m -13.998,20.155 c 8.967,0 16.222,3.927 16.222,8.814 0,4.887 -7.255,8.811 -16.222,8.811 -8.826,0 -16.055,-3.924 -16.055,-8.811 0,-4.887 7.229,-8.814 16.055,-8.814 m 13.998,-60.452 c 8.832,0 16.066,3.939 16.066,8.81 0,4.891 -7.234,8.826 -16.066,8.826 -8.815,0 -16.048,-3.935 -16.048,-8.826 0,-4.871 7.233,-8.81 16.048,-8.81 m -13.998,-20.166 c 8.967,0 16.222,3.951 16.222,8.82 0,4.892 -7.255,8.83 -16.222,8.83 -8.826,0 -16.055,-3.938 -16.055,-8.83 0,-4.869 7.229,-8.82 16.055,-8.82" /></g></g></g></g></svg>